<?xml version="1.0" encoding="UTF-8" standalone="no"?>
<!-- Created with Inkscape (http://www.inkscape.org/) -->
<svg id="svg2" xmlns:rdf="http://www.w3.org/1999/02/22-rdf-syntax-ns#" xmlns="http://www.w3.org/2000/svg" height="105.56mm" width="74.324mm" version="1.1" xmlns:cc="http://creativecommons.org/ns#" xmlns:dc="http://purl.org/dc/elements/1.1/" viewBox="0 0 263.35278 374.04341">
 <metadata id="metadata7">
  <rdf:RDF>
   <cc:Work rdf:about="">
    <dc:format>image/svg+xml</dc:format>
    <dc:type rdf:resource="http://purl.org/dc/dcmitype/StillImage"/>
    <dc:title/>
   </cc:Work>
  </rdf:RDF>
 </metadata>
 <g id="layer1" transform="translate(-152.74 -258.08)">
  <g>
   <rect id="rect5916" stroke-linejoin="round" ry="32.038" height="372.04" width="261.35" stroke="#000" stroke-linecap="round" y="259.08" x="153.74" stroke-width="2" fill="#fff"/>
   <path id="rect4330" stroke-linejoin="round" d="m184.89 321.59c-0.61602 0-1.224 0.0314-1.8242 0.0898-0.022 0.002-0.0445 0.002-0.0664 0.005-0.62087 0.0627-1.2332 0.156-1.834 0.27833-0.30054 0.0612-0.59861 0.12954-0.89355 0.20507-0.29464 0.0755-0.58633 0.15864-0.875 0.24805-0.28896 0.0895-0.5758 0.18598-0.8584 0.28906-3.3909 1.2372-6.3104 3.439-8.4297 6.2764-0.17661 0.23645-0.34738 0.47658-0.51269 0.72168-0.00026 0.00038-0.0007 0.0005-0.001 0.001-0.33064 0.49021-0.63776 0.99703-0.9209 1.5195-0.14157 0.26124-0.27712 0.52617-0.40625 0.79492-0.12912 0.26874-0.25187 0.54054-0.36816 0.81641-0.00012 0.00027 0.00011 0.0005 0 0.001-0.11617 0.27559-0.22612 0.5546-0.32911 0.83691-0.0001 0.00029 0.00011 0.0005 0 0.001-0.10296 0.28232-0.19965 0.56778-0.28906 0.85645-0.00009 0.00029 0.00009 0.0005 0 0.001-0.0252 0.0816-0.0461 0.16503-0.0703 0.24707-0.21971 0.74608-0.3945 1.5112-0.51953 2.294-0.007 0.0458-0.0174 0.0907-0.0244 0.13671-0.00004 0.00032 0.00005 0.0005 0 0.001-0.006 0.0385-0.009 0.0777-0.0146 0.11621-0.12816 0.88068-0.17442 1.7812-0.19726 2.6982v20.274 239.29c0 10.212 8.2222 18.434 18.435 18.434h141.74c10.212 0 18.435-8.2212 18.435-18.434v-201.92c-0.70794-15.172 8.6229-21.932 20.336-21.932h22.659c10.212 0 18.435-8.2212 18.435-18.434v-17.274c0-10.212-8.2222-18.435-18.435-18.435h-61.429z" stroke="#000" stroke-linecap="round" stroke-width="2" fill="#ccc"/>
   <circle id="path3338-3" cx="195.06" cy="349.45" r="20" fill="#f00"/>
  </g>
  <circle id="path3338-4-11" cx="255.06" cy="349.45" r="20" fill="#008000"/>
  <g>
   <circle id="path3338-2-9" cx="315.06" cy="349.45" r="20" fill="#00f"/>
   <circle id="path3338-4-1-9" cx="375.06" stroke="#000" cy="349.45" r="20" stroke-width=".5" fill="#fff"/>
   <circle id="path3338-3-3" cx="195.06" cy="409.45" r="20" fill="#f60"/>
  </g>
  <circle id="path3338-4-11-5" cx="255.06" cy="409.45" r="20" fill="#0f6"/>
  <circle id="path3338-2-9-7" cx="315.06" cy="409.45" r="20" fill="#954fff"/>
  <circle id="path3338-6" cx="195.06" cy="469.45" r="20" fill="#f95"/>
  <circle id="path3338-4-4" cx="255.06" cy="469.45" r="20" fill="#00d4aa"/>
  <circle id="path3338-2-2" cx="315.06" cy="469.45" r="20" fill="#aa00d4"/>
  <circle id="path3338-3-4" cx="195.06" cy="529.45" r="20" fill="#fc0"/>
  <circle id="path3338-4-11-8" cx="255.06" cy="529.45" r="20" fill="#5df"/>
  <circle id="path3338-2-9-6" cx="315.06" cy="529.45" r="20" fill="#a02c89"/>
  <circle id="path3338-3-3-2" cx="195.06" cy="589.45" r="20" fill="#fea"/>
  <circle id="path3338-4-11-5-6" cx="255.06" cy="589.45" r="20" fill="#008fb3"/>
  <circle id="path3338-2-9-7-5" cx="315.06" cy="589.45" r="20" fill="#d35fbc"/>
  <text id="text3491" style="word-spacing:0px;letter-spacing:0px" xml:space="preserve" font-size="20px" y="308.73172" x="312.20667" font-family="sans-serif" line-height="125%" fill="#000000"><tspan id="tspan3493" x="312.20667" y="308.73172"/></text>
  <g id="g5918" transform="matrix(.5 0 0 .5 142.21 222.55)">
   <circle id="path3338" cy="133.79" cx="105.71" r="40" fill="#ccc"/>
   <g id="g4237" transform="matrix(.68262 0 0 .68262 71.584 99.66)">
    <path id="path5764-6" d="m50.525 5.0038c-6.9-0.0672-13.925 0.7-19.476 2.4789-2.3854 0.76453-4.2715 2.1558-5.3876 4.0416-1.116 1.8859-1.4423 4.2503-0.79114 6.8761 0.9671 3.8996 2.3419 7.2827 4.0045 10.369 0.28264 0.52461 0.58849 1.0079 0.95718 1.3967 0.36869 0.38879 0.81936 0.69406 1.3615 0.76184 12.003 1.5004 26.433 1.2608 37.672-0.19925 0.72595-0.09432 1.4985-0.70238 2.225-2.1742 1.7228-3.4905 3.1311-7.2252 4.1979-11.65 0.919-3.813-1.918-8.1066-6.032-9.3744-5.054-1.5582-11.831-2.4606-18.731-2.5278zm-0.0078 1.0627c6.8211 0.066185 13.523 0.94168 18.435 2.4555 3.6018 1.1102 6.087 4.9956 5.329 8.1399-1.0492 4.3522-2.4275 8.0047-4.1198 11.433-0.64792 1.3128-1.194 1.5753-1.428 1.6057-11.141 1.4473-25.523 1.6833-37.41 0.1973-0.231-0.029-0.472-0.164-0.739-0.445-0.266-0.281-0.538-0.696-0.797-1.176-1.625-3.018-2.963-6.314-3.908-10.127-0.598-2.409-0.294-4.46 0.676-6.098 0.969-1.638 2.621-2.8789 4.811-3.5808 5.388-1.7271 12.33-2.4709 19.151-2.4047z" style="color-rendering:auto;text-decoration-color:#000000;color:#000000;isolation:auto;mix-blend-mode:normal;shape-rendering:auto;solid-color:#000000;block-progression:tb;text-decoration-line:none;image-rendering:auto;white-space:normal;text-indent:0;text-transform:none;text-decoration-style:solid"/>
    <path id="path5678-8-7" d="m69.782 31.071c-15.172 1.8951-27.007 2.0054-39.712 0.15577 6.055 19.66 5.9792 28.587 6.1191 37.895 0.22407 0.21316 0.22675 0.40194 0.76204 0.57676 0.05771 0.34504 0.15632 0.83586 0.35153 1.1346 0.13224 0.20236 0.40893 0.39622 0.61044 0.52834 0.05644 0.3687 0.14711 0.84532 0.31574 1.1409 0.17881 0.3134 0.75989 0.70937 0.75989 0.70937 6.9921 1.0969 14.424 0.73606 21.416 0.10946 0 0 0.71304-0.4949 0.95144-0.87145 0.15844-0.25025 0.30131-0.6846 0.40415-1.0567 0.24993-0.1699 0.55186-0.39243 0.71148-0.61254 0.1879-0.25912 0.34325-0.69091 0.45678-1.063 0.35136-0.13568 0.63594-0.28104 0.78725-0.43994-0.43785-12.654 2.8728-25.687 6.0665-38.207z"/>
    <path id="path5698-4-7" d="m39.142 72.857v3.8879c7.285 0.04553 14.691 0.46277 21.297-1.6082l-0.05404-2.2291-21.243-0.05052zm21.137 3.8879c-6.5172 1.8172-13.555 1.6494-20.337 0.87987l-1.3316 1.505c7.952 0.54318 16.653 1.2064 22.2-1.8671l-0.53177-0.51782zm-0.07998 3.189c-6.5172 1.8172-13.555 1.6515-20.337 0.88198l-1.3316 1.5029c7.952 0.54318 16.653 1.2064 22.2-1.8671l-0.53177-0.51782zm0.10592 3.008c-6.5172 1.8172-13.555 1.6494-20.337 0.87987l-1.3316 1.5029c7.952 0.54318 16.653 1.2085 22.2-1.865l-0.53177-0.51782zm0.05404 2.9533c-6.5172 1.8172-13.555 1.6515-20.337 0.88198l-1.3316 1.5029c7.952 0.54318 16.653 1.2085 22.2-1.865l-0.53177-0.51992zm-3.9126 5.675c-3.9969 0.33151-8.2001 0.52956-13.043 0.31153 0.52667 0.43816 0.98953 0.75495 2.3411 2.7996 3.4097 0.55538 5.9834 0.29783 8.411-0.10314 0.05352-0.78924 1.464-1.9676 2.2914-3.008z"/>
   </g>
   <g id="g4256" stroke="#000" transform="translate(-52.857 -47.857)">
    <circle id="path4250" stroke-linejoin="round" cx="171.07" stroke-linecap="round" cy="192.36" r="10.461" stroke-width="3" fill="#fff"/>
    <path id="path4252" d="m171.07 187.36v10" stroke-width="2" fill="none"/>
    <path id="path4254" d="m166.07 192.36h10" stroke-width="2" fill="none"/>
   </g>
  </g>
  <g id="g5929" transform="matrix(.5 0 0 .5 142.21 222.55)">
   <circle id="path3338-4" cy="133.79" cx="225.71" r="40" fill="#ccc"/>
   <g id="g4242" transform="matrix(.68262 0 0 .68262 191.58 99.66)">
    <path id="path4244" style="color-rendering:auto;text-decoration-color:#000000;color:#000000;isolation:auto;mix-blend-mode:normal;shape-rendering:auto;solid-color:#000000;block-progression:tb;text-decoration-line:none;image-rendering:auto;white-space:normal;text-indent:0;text-transform:none;text-decoration-style:solid" d="m50.525 5.0038c-6.9-0.0672-13.925 0.7-19.476 2.4789-2.3854 0.76453-4.2715 2.1558-5.3876 4.0416-1.116 1.8859-1.4423 4.2503-0.79114 6.8761 0.9671 3.8996 2.3419 7.2827 4.0045 10.369 0.28264 0.52461 0.58849 1.0079 0.95718 1.3967 0.36869 0.38879 0.81936 0.69406 1.3615 0.76184 12.003 1.5004 26.433 1.2608 37.672-0.19925 0.72595-0.09432 1.4985-0.70238 2.225-2.1742 1.7228-3.4905 3.1311-7.2252 4.1979-11.65 0.919-3.813-1.918-8.1066-6.032-9.3744-5.054-1.5582-11.831-2.4606-18.731-2.5278zm-0.0078 1.0627c6.8211 0.066185 13.523 0.94168 18.435 2.4555 3.6018 1.1102 6.087 4.9956 5.329 8.1399-1.0492 4.3522-2.4275 8.0047-4.1198 11.433-0.64792 1.3128-1.194 1.5753-1.428 1.6057-11.141 1.4473-25.523 1.6833-37.41 0.1973-0.231-0.029-0.472-0.164-0.739-0.445-0.266-0.281-0.538-0.696-0.797-1.176-1.625-3.018-2.963-6.314-3.908-10.127-0.598-2.409-0.294-4.46 0.676-6.098 0.969-1.638 2.621-2.8789 4.811-3.5808 5.388-1.7271 12.33-2.4709 19.151-2.4047z"/>
    <path id="path4246" d="m69.782 31.071c-15.172 1.8951-27.007 2.0054-39.712 0.15577 6.055 19.66 5.9792 28.587 6.1191 37.895 0.22407 0.21316 0.22675 0.40194 0.76204 0.57676 0.05771 0.34504 0.15632 0.83586 0.35153 1.1346 0.13224 0.20236 0.40893 0.39622 0.61044 0.52834 0.05644 0.3687 0.14711 0.84532 0.31574 1.1409 0.17881 0.3134 0.75989 0.70937 0.75989 0.70937 6.9921 1.0969 14.424 0.73606 21.416 0.10946 0 0 0.71304-0.4949 0.95144-0.87145 0.15844-0.25025 0.30131-0.6846 0.40415-1.0567 0.24993-0.1699 0.55186-0.39243 0.71148-0.61254 0.1879-0.25912 0.34325-0.69091 0.45678-1.063 0.35136-0.13568 0.63594-0.28104 0.78725-0.43994-0.43785-12.654 2.8728-25.687 6.0665-38.207z"/>
    <path id="path4248" d="m39.142 72.857v3.8879c7.285 0.04553 14.691 0.46277 21.297-1.6082l-0.05404-2.2291-21.243-0.05052zm21.137 3.8879c-6.5172 1.8172-13.555 1.6494-20.337 0.87987l-1.3316 1.505c7.952 0.54318 16.653 1.2064 22.2-1.8671l-0.53177-0.51782zm-0.07998 3.189c-6.5172 1.8172-13.555 1.6515-20.337 0.88198l-1.3316 1.5029c7.952 0.54318 16.653 1.2064 22.2-1.8671l-0.53177-0.51782zm0.10592 3.008c-6.5172 1.8172-13.555 1.6494-20.337 0.87987l-1.3316 1.5029c7.952 0.54318 16.653 1.2085 22.2-1.865l-0.53177-0.51782zm0.05404 2.9533c-6.5172 1.8172-13.555 1.6515-20.337 0.88198l-1.3316 1.5029c7.952 0.54318 16.653 1.2085 22.2-1.865l-0.53177-0.51992zm-3.9126 5.675c-3.9969 0.33151-8.2001 0.52956-13.043 0.31153 0.52667 0.43816 0.98953 0.75495 2.3411 2.7996 3.4097 0.55538 5.9834 0.29783 8.411-0.10314 0.05352-0.78924 1.464-1.9676 2.2914-3.008z"/>
   </g>
   <g id="g4273" stroke="#000" transform="translate(69.143 -47.857)">
    <circle id="circle4275" stroke-linejoin="round" stroke-width="3" stroke-linecap="round" cy="192.36" cx="171.07" r="10.461" fill="#fff"/>
    <path id="path4279" d="m166.07 192.36h10" stroke-width="2" fill="none"/>
   </g>
  </g>
  <g id="g5948" transform="matrix(.5 0 0 .5 142.21 222.55)">
   <circle id="path3338-4-1" cy="133.79" cx="465.71" r="40" fill="#ccc"/>
   <g id="g4289" stroke-linejoin="round" transform="matrix(0 3.4491 -3.4491 0 1127.2 -456.25)" stroke="#000" stroke-linecap="round" fill="#fff">
    <circle id="circle4291" stroke-width="3" cy="192.36" cx="171.07" r="10.461"/>
    <circle id="circle4301" cx="171.07" cy="192.36" r="5.0822" stroke-width="1.4574"/>
   </g>
  </g>
  <g id="g5939" transform="matrix(.5 0 0 .5 142.21 222.55)">
   <circle id="path3338-2" cy="133.79" cx="345.71" r="40" fill="#2b0000"/>
   <g id="g4283" stroke="#000" transform="matrix(0 3.4491 -3.4491 0 1009.2 -456.25)">
    <circle id="circle4285" stroke-linejoin="round" cx="171.07" stroke-linecap="round" cy="192.36" r="10.461" stroke-width="3" fill="#fff"/>
    <path id="path4287" d="m166.07 192.36h10" stroke-width="2" fill="none"/>
   </g>
   <g id="g4295" stroke="#000" transform="matrix(0 3.4491 -3.4491 0 1009.2 -456.25)">
    <circle id="circle4297" stroke-linejoin="round" cx="171.07" stroke-linecap="round" cy="192.36" r="10.461" stroke-width="3" fill="#fff"/>
    <path id="path4299" d="m166.07 192.36h10" stroke-width="2" fill="none"/>
   </g>
  </g>
  <g id="g6002" transform="matrix(.5 0 0 .5 142.21 222.55)">
   <circle id="path3338-4-1-9-2-2" cy="733.79" cx="465.71" r="40" fill="#ccc"/>
   <g id="g4314" stroke="#000" transform="matrix(0 2.6468 -2.6468 0 974.86 281)">
    <circle id="circle4316" stroke-linejoin="round" stroke-width="1.5113" stroke-linecap="round" cy="192.36" cx="171.07" r="10.461" fill="#fff"/>
    <path id="path4318" d="m163.05 192.36h7.9009" stroke-width="1.3433" fill="none"/>
    <path id="path4320" d="m171.66 185.14-0.037 7.9008" stroke-width="1.3433" fill="none"/>
   </g>
  </g>
  <g id="g5954" transform="matrix(.5 0 0 .5 142.21 222.55)">
   <circle id="path3338-4-1-9-2" cy="373.79" cx="465.71" r="40" fill="#ccc"/>
   <path id="path4322" stroke-linejoin="round" d="m-279.97 437.43-54.594-54.594-54.594-54.594 74.577-19.983 74.577-19.983-19.983 74.577z" transform="matrix(.22237 .22174 -.22174 .22237 609.74 362.85)" stroke="#000" stroke-linecap="round" stroke-width="12.737" fill="#fff"/>
  </g>
  <g id="g5962" transform="matrix(.5 0 0 .5 142.21 222.55)">
   <circle id="path3338-4-1-9-4" cy="613.79" cx="465.71" r="40" fill="#ccc"/>
   <g id="g5876" transform="matrix(.25968 0 0 .25968 580.61 513.77)">
    <path id="use5729" d="m-452.3 270.5c7.6469-0.74609 12.595-0.79651 20.203 0l-4.2932 53.538c-3.4647-0.31007-7.0582-0.48878-10.859-0.12627z" fill="#f00"/>
    <path id="use5731" d="m-432.24 270.54c7.6603 0.59312 12.542 1.4026 19.896 3.5082l-13.525 51.979c-3.3582-0.907-6.8661-1.707-10.672-2.01z" fill="#ff2b00"/>
    <path id="use5733" d="m-412.49 274.05c7.4409 1.9143 12.107 3.5591 18.985 6.9098l-22.345 48.841c-3.1497-1.4764-6.4653-2.8733-10.161-3.8327z" fill="#f50"/>
    <path id="use5735" d="m-393.65 280.94c6.9955 3.1773 11.305 5.6075 17.496 10.102l-30.487 44.219c-2.8455-2.0009-5.8682-3.9524-9.3412-5.5389z" fill="#ff8000"/>
    <path id="use5737" d="m-376.29 291c6.3374 4.3438 10.16 7.4854 15.476 12.986l-37.702 38.253c-2.4548-2.4646-5.0927-4.9113-8.2374-7.0768z" fill="#fa0"/>
    <path id="use5739" d="m-360.95 303.91c5.4869 5.3783 8.7058 9.136 12.986 15.476l-43.772 31.125c-1.9895-2.8534-4.1625-5.721-6.8834-8.3998z" fill="#ffd500"/>
    <path id="use5741" d="m-348.08 319.3c4.4696 6.2494 6.9871 10.509 10.102 17.496l-48.512 23.051c-1.4638-3.1555-3.1058-6.3569-5.3202-9.4674z" fill="#ff0"/>
    <path id="use5743" d="m-338.08 336.69c3.3165 6.9306 5.0561 11.563 6.9098 18.985l-51.778 14.277c-0.89362-3.3618-1.9547-6.7997-3.5954-10.247z" fill="#d4ff00"/>
    <path id="use5745" d="m-331.25 355.55c2.0626 7.4012 2.9714 12.265 3.5082 19.896l-53.47 5.0689c-0.29627-3.4659-0.74428-7.0358-1.7613-10.716z" fill="#af0"/>
    <path id="use5747" d="m-327.79 375.31c0.74609 7.6469 0.79651 12.595 0 20.203l-53.538-4.2932c0.31007-3.4647 0.48878-7.0582 0.12627-10.859z" fill="#7fff00"/>
    <path id="use5749" d="m-327.83 395.37c-0.59312 7.6603-1.4026 12.542-3.5082 19.896l-51.979-13.525c0.907-3.3582 1.707-6.8661 2.01-10.672z" fill="#5f0"/>
    <path id="use5751" d="m-331.34 415.11c-1.9143 7.4409-3.5591 12.107-6.9098 18.985l-48.841-22.345c1.4764-3.1497 2.8733-6.4653 3.8327-10.161z" fill="#2aff00"/>
    <path id="use5753" d="m-338.23 433.95c-3.1773 6.9955-5.6075 11.305-10.102 17.496l-44.219-30.487c2.0009-2.8455 3.9524-5.8682 5.5389-9.3412z" fill="#0f0"/>
    <path id="use5755" d="m-348.29 451.31c-4.3438 6.3374-7.4854 10.16-12.986 15.476l-38.253-37.702c2.4646-2.4548 4.9113-5.0927 7.0768-8.2374z" fill="#00ff2b"/>
    <path id="use5757" d="m-361.21 466.65c-5.3783 5.4869-9.136 8.7058-15.476 12.986l-31.125-43.772c2.8534-1.9895 5.721-4.1625 8.3998-6.8834z" fill="#0f5"/>
    <path id="use5759" d="m-376.59 479.52c-6.2494 4.4696-10.509 6.9871-17.496 10.102l-23.051-48.512c3.1555-1.4638 6.3569-3.1058 9.4674-5.3202z" fill="#00ff80"/>
    <path id="use5761" d="m-393.98 489.53c-6.9306 3.3165-11.563 5.0561-18.985 6.9098l-14.277-51.778c3.3618-0.89362 6.7997-1.9547 10.247-3.5954z" fill="#0fa"/>
    <path id="use5763" d="m-412.84 496.36c-7.4012 2.0626-12.265 2.9714-19.896 3.5082l-5.0689-53.47c3.4659-0.29628 7.0358-0.74429 10.716-1.7613z" fill="#00ffd5"/>
    <path id="use5765" d="m-432.6 499.81c-7.6469 0.74609-12.595 0.79651-20.203 0l4.2932-53.538c3.4647 0.31007 7.0582 0.48878 10.859 0.12627z" fill="#0ff"/>
    <path id="use5767" d="m-452.66 499.78c-7.6603-0.59312-12.542-1.4026-19.896-3.5082l13.525-51.979c3.3582 0.907 6.8661 1.707 10.672 2.01z" fill="#00d4ff"/>
    <path id="use5769" d="m-472.41 496.26c-7.4409-1.9143-12.107-3.5591-18.985-6.9098l22.345-48.841c3.1497 1.4764 6.4653 2.8733 10.161 3.8327z" fill="#0af"/>
    <path id="use5771" d="m-491.24 489.37c-6.9955-3.1773-11.305-5.6075-17.496-10.102l30.487-44.219c2.8455 2.0009 5.8682 3.9524 9.3412 5.5389z" fill="#007fff"/>
    <path id="use5773" d="m-508.6 479.32c-6.3374-4.3438-10.16-7.4854-15.476-12.986l37.702-38.253c2.4548 2.4646 5.0927 4.9113 8.2374 7.0768z" fill="#05f"/>
    <path id="use5775" d="m-523.94 466.4c-5.4869-5.3783-8.7058-9.136-12.986-15.476l43.772-31.125c1.9895 2.8534 4.1625 5.721 6.8834 8.3998z" fill="#002aff"/>
    <path id="use5777" d="m-536.81 451.01c-4.4696-6.2494-6.9871-10.509-10.102-17.496l48.512-23.051c1.4638 3.1555 3.1058 6.3569 5.3202 9.4674z" fill="#00f"/>
    <path id="use5779" d="m-546.82 433.62c-3.3165-6.9306-5.0561-11.563-6.9098-18.985l51.778-14.277c0.89362 3.3618 1.9547 6.7997 3.5954 10.247z" fill="#2b00ff"/>
    <path id="use5781" d="m-553.65 414.76c-2.0626-7.4012-2.9714-12.265-3.5082-19.896l53.47-5.0689c0.29628 3.4659 0.74429 7.0358 1.7613 10.716z" fill="#50f"/>
    <path id="use5783" d="m-557.1 395.01c-0.74609-7.6469-0.79651-12.595 0-20.203l53.538 4.2932c-0.31007 3.4647-0.48878 7.0582-0.12627 10.859z" fill="#8000ff"/>
    <path id="use5785" d="m-557.07 374.95c0.59312-7.6603 1.4026-12.542 3.5082-19.896l51.979 13.525c-0.907 3.3582-1.707 6.8661-2.01 10.672z" fill="#a0f"/>
    <path id="use5787" d="m-553.55 355.2c1.9143-7.4409 3.5591-12.107 6.9098-18.985l48.841 22.345c-1.4764 3.1497-2.8733 6.4653-3.8327 10.161z" fill="#d500ff"/>
    <path id="use5789" d="m-546.66 336.36c3.1773-6.9955 5.6075-11.305 10.102-17.496l44.219 30.487c-2.0009 2.8455-3.9524 5.8682-5.5389 9.3412z" fill="#f0f"/>
    <path id="use5791" d="m-536.61 319c4.3438-6.3374 7.4854-10.16 12.986-15.476l38.253 37.702c-2.4646 2.4548-4.9113 5.0927-7.0768 8.2374z" fill="#ff00d4"/>
    <path id="use5793" d="m-523.69 303.66c5.3783-5.4869 9.136-8.7058 15.476-12.986l31.125 43.772c-2.8534 1.9895-5.721 4.1625-8.3998 6.8834z" fill="#f0a"/>
    <path id="use5795" d="m-508.3 290.79c6.2494-4.4696 10.509-6.9871 17.496-10.102l23.051 48.512c-3.1555 1.4638-6.3569 3.1058-9.4674 5.3202z" fill="#ff007f"/>
    <path id="use5797" d="m-490.92 280.79c6.9306-3.3165 11.563-5.0561 18.985-6.9098l14.277 51.778c-3.3618 0.89362-6.7997 1.9547-10.247 3.5954z" fill="#f05"/>
    <path id="use5799" d="m-472.06 273.96c7.4012-2.0626 12.265-2.9714 19.896-3.5082l5.0689 53.47c-3.4659 0.29628-7.0358 0.74428-10.716 1.7613z" fill="#ff002a"/>
   </g>
  </g>
  <g id="g5958" transform="matrix(.5 0 0 .5 142.21 222.55)">
   <circle id="path3338-4-1-3" cy="493.79" cx="465.71" r="40" fill="#ccc"/>
   <path id="path5914" stroke-linejoin="round" transform="matrix(.22237 .22174 -.22174 .22237 609.74 482.85)" stroke="#000" stroke-linecap="round" stroke-width="12.737" fill="#fff" d="m-279.97 437.43-54.594-54.594-54.594-54.594 74.577-19.983 74.577-19.983-19.983 74.577z"/>
  </g>
 </g>
</svg>
