<svg id="svg2" xmlns:rdf="http://www.w3.org/1999/02/22-rdf-syntax-ns#" xmlns="http://www.w3.org/2000/svg" height="374.04" viewBox="0 0 215.48185 374.04432" width="215.48" version="1.1" xmlns:cc="http://creativecommons.org/ns#" xmlns:dc="http://purl.org/dc/elements/1.1/">
 <path id="path4175" stroke-linejoin="round" d="m104.55 2.6772c1.782-0.0094 3.5641-0.0067 5.3436 0.01069v-0.0053c28.472 0.27729 56.437 4.0017 77.292 10.432 16.977 5.2316 28.683 22.947 24.892 38.681-4.4021 18.259-10.213 33.672-17.323 48.074-2.9979 6.0734-6.1862 8.5813-9.1817 8.9704-46.377 6.0248-105.92 7.0132-155.45 0.82184-2.2371-0.27968-4.0962-1.5398-5.6176-3.1441-1.5213-1.6044-2.784-3.5963-3.9503-5.7611-6.848-12.739-12.52-26.7-16.511-42.791-2.6867-10.836-1.3407-20.593 3.2644-28.375 4.6056-7.782 12.387-13.521 22.231-16.675 21.475-6.8817 48.296-10.095 75.029-10.241z" stroke="#000" stroke-linecap="round" stroke-width="5.3436" fill="#ff0"/>
 <path id="path5764-6" style="color-rendering:auto;text-decoration-color:#000000;color:#000000;isolation:auto;mix-blend-mode:normal;shape-rendering:auto;solid-color:#000000;block-progression:tb;text-decoration-line:none;image-rendering:auto;white-space:normal;text-indent:0;text-transform:none;text-decoration-style:solid" d="m109.9 2.6905c-28.477-0.2773-57.465 2.8885-80.372 10.23-9.8432 3.1548-17.626 8.8958-22.232 16.677-4.6051 7.7821-5.9516 17.539-3.2646 28.373 3.9906 16.091 9.6637 30.051 16.524 42.786 1.1663 2.1647 2.4284 4.1591 3.9497 5.7634s3.3811 2.864 5.6182 3.1437c49.53 6.1913 109.07 5.2026 155.45-0.82219 2.9956-0.38912 6.1835-2.8984 9.1813-8.9717 7.109-14.404 12.92-29.815 17.323-48.073 3.8-15.733-7.91-33.45-24.89-38.681-20.85-6.4301-48.82-10.154-77.29-10.431zm-0.033 4.3853c28.146 0.27317 55.802 3.8858 76.071 10.132 14.862 4.5812 25.118 20.614 21.99 33.589-4.3294 17.959-10.017 33.03-17.001 47.178-2.6736 5.4172-4.927 6.5004-5.8926 6.6258-45.973 5.9722-105.32 6.9461-154.36 0.81416-0.95321-0.11969-1.9476-0.67675-3.0495-1.8363-1.11-1.16-2.232-2.87-3.301-4.854-6.705-12.454-12.226-26.055-16.125-41.789-2.4679-9.941-1.2136-18.403 2.789-25.163 3.999-6.759 10.816-11.88 19.853-14.777 22.234-7.1265 50.88-10.196 79.026-9.9225z"/>
 <path id="path5678-8-7" d="m189.37 110.24c-62.606 7.82-111.44 8.2769-163.88 0.64447 24.986 81.126 24.674 117.96 25.251 156.37 0.92461 0.8796 0.93523 1.6581 3.1441 2.3795 0.2381 1.4238 0.64519 3.4481 1.4507 4.6809 0.54568 0.83502 1.6863 1.6361 2.5179 2.1813 0.23273 1.5215 0.60614 3.4872 1.302 4.7069 0.73785 1.2932 3.1363 2.9275 3.1363 2.9275 0.21058 0.033 0.42327 0.0589 0.63404 0.0914v14.489c30.061 0.18775 60.621 1.9079 87.88-6.6379l-0.18262-7.4884c0.0138-0.001 0.0279-0.001 0.0417-0.003 0 0 2.9405-2.0417 3.9242-3.5955 0.65379-1.0326 1.2429-2.8245 1.6672-4.36 1.0313-0.70108 2.2793-1.6201 2.9379-2.5283 0.77535-1.0692 1.4154-2.8507 1.8839-4.3861 1.4499-0.55986 2.6241-1.1603 3.2484-1.816-1.8068-52.217 11.854-106 25.032-157.66zm-39.222 188.47c-26.892 7.4979-55.932 6.8047-83.916 3.6294l-5.495 6.2098c32.814 2.2414 68.716 4.9802 91.606-7.7023l-2.1917-2.1369h-0.003zm-0.32876 13.158c-26.893 7.4986-55.935 6.8153-83.919 3.6398l-5.495 6.2021c32.814 2.2414 68.719 4.9777 91.609-7.705l-2.1944-2.1369zm0.43573 12.412c-26.892 7.4979-55.932 6.8072-83.916 3.6321l-5.495 6.2021c32.814 2.2414 68.716 4.9855 91.606-7.6971l-2.1917-2.1369h-0.003zm0.22439 12.187c-26.893 7.4986-55.935 6.8153-83.919 3.6398l-5.495 6.2021c32.814 2.2414 68.716 4.9855 91.606-7.6971l-2.1917-2.1448zm-16.146 23.417c-16.493 1.368-33.836 2.1861-53.82 1.2863 2.1733 1.808 4.082 3.1138 9.6593 11.551 14.07 2.2918 24.69 1.2293 34.707-0.4253 0.22077-3.2568 6.0415-8.1188 9.4557-12.412h-0.003z"/>
</svg>
