<?xml version="1.0" encoding="UTF-8" standalone="no"?>
<!-- Created with Inkscape (http://www.inkscape.org/) -->

<svg
   xmlns:dc="http://purl.org/dc/elements/1.1/"
   xmlns:cc="http://creativecommons.org/ns#"
   xmlns:rdf="http://www.w3.org/1999/02/22-rdf-syntax-ns#"
   xmlns:svg="http://www.w3.org/2000/svg"
   xmlns="http://www.w3.org/2000/svg"
   xmlns:sodipodi="http://sodipodi.sourceforge.net/DTD/sodipodi-0.dtd"
   xmlns:inkscape="http://www.inkscape.org/namespaces/inkscape"
   width="45.523758mm"
   height="79.022255mm"
   viewBox="0 0 161.30465 280.00011"
   id="svg2"
   version="1.1"
   inkscape:version="0.91 r13725"
   sodipodi:docname="lamp.svg">
  <defs
     id="defs4" />
  <sodipodi:namedview
     id="base"
     pagecolor="#ffffff"
     bordercolor="#666666"
     borderopacity="1.0"
     inkscape:pageopacity="0.0"
     inkscape:pageshadow="2"
     inkscape:zoom="1"
     inkscape:cx="-161.9515"
     inkscape:cy="152.57143"
     inkscape:document-units="px"
     inkscape:current-layer="layer1"
     showgrid="false"
     inkscape:window-width="1920"
     inkscape:window-height="1017"
     inkscape:window-x="-8"
     inkscape:window-y="-8"
     inkscape:window-maximized="1"
     fit-margin-top="0"
     fit-margin-left="0"
     fit-margin-right="0"
     fit-margin-bottom="0" />
  <metadata
     id="metadata7">
    <rdf:RDF>
      <cc:Work
         rdf:about="">
        <dc:format>image/svg+xml</dc:format>
        <dc:type
           rdf:resource="http://purl.org/dc/dcmitype/StillImage" />
        <dc:title></dc:title>
      </cc:Work>
    </rdf:RDF>
  </metadata>
  <g
     inkscape:label="Layer 1"
     inkscape:groupmode="layer"
     id="layer1"
     transform="translate(-43.357017,-404.93353)">
    <path
       style="fill:#ffff00;fill-opacity:1;stroke:#000000;stroke-width:4;stroke-linecap:round;stroke-linejoin:round;stroke-miterlimit:4;stroke-dasharray:none;stroke-dashoffset:0;stroke-opacity:1"
       d="m 121.62305,406.9375 c 1.33388,-0.007 2.66792,-0.005 4,0.008 l 0,-0.004 c 21.3132,0.20757 42.24628,2.99552 57.85742,7.80859 12.7076,3.91607 21.47148,17.17723 18.63281,28.95508 -3.2952,13.66763 -7.64529,25.20463 -12.9668,35.98633 -2.24406,4.54626 -4.63067,6.42356 -6.87304,6.71484 -34.71579,4.5099 -79.28759,5.24977 -116.363284,0.61523 -1.674599,-0.20936 -3.066243,-1.15259 -4.205078,-2.35351 -1.138835,-1.20095 -2.083993,-2.69205 -2.957031,-4.3125 -5.135553,-9.53318 -9.381896,-19.98395 -12.369141,-32.0293 -2.011347,-8.11075 -1.003817,-15.41493 2.44336,-21.24023 3.447486,-5.82499 9.272438,-10.12089 16.640625,-12.48242 16.074663,-5.15137 36.151879,-7.55658 56.160159,-7.66602 z"
       id="path4175"
       inkscape:connector-curvature="0" />
    <path
       inkscape:connector-curvature="0"
       id="path5764-6"
       style="color:#000000;text-indent:0;text-decoration:none;text-decoration-line:none;text-decoration-style:solid;text-decoration-color:#000000;text-transform:none;block-progression:tb;white-space:normal;isolation:auto;mix-blend-mode:normal;solid-color:#000000;color-rendering:auto;image-rendering:auto;shape-rendering:auto"
       d="m 125.62253,406.94569 c -21.31319,-0.20757 -43.012489,2.16221 -60.158797,7.657 -7.368187,2.36153 -13.194102,6.65898 -16.641588,12.48397 -3.447177,5.8253 -4.455075,13.12862 -2.443728,21.23937 2.987245,12.04535 7.233821,22.4953 12.369374,32.02848 0.873038,1.62045 1.817768,3.11327 2.956603,4.31422 1.138835,1.20092 2.530896,2.14386 4.205495,2.35322 37.075691,4.63454 81.648061,3.89445 116.363851,-0.61545 2.24237,-0.29128 4.62867,-2.16956 6.87273,-6.71582 5.32151,-10.7817 9.67156,-22.31769 12.96676,-35.98532 2.83867,-11.77785 -5.92445,-25.04022 -18.63205,-28.95629 -15.61114,-4.81307 -36.5444,-7.60047 -57.8576,-7.80804 z m -0.0247,3.28255 c 21.06948,0.20448 41.77077,2.90872 56.94329,7.58471 11.12549,3.42926 18.80195,15.43075 16.46058,25.14308 -3.24084,13.44338 -7.49822,24.72547 -12.72552,35.31504 -2.00134,4.05506 -3.68811,4.86589 -4.4109,4.95979 -34.41308,4.47052 -78.83719,5.19949 -115.55457,0.60944 -0.713528,-0.0896 -1.457946,-0.50658 -2.282673,-1.37455 -0.82164,-0.86797 -1.661812,-2.14985 -2.461829,-3.63251 -5.019411,-9.32221 -9.152317,-19.50312 -12.071298,-31.28097 -1.847143,-7.44109 -0.908127,-13.77635 2.088075,-18.83592 2.993114,-5.05957 8.095925,-8.89254 14.860547,-11.06062 16.642823,-5.33479 38.085748,-7.63229 59.154918,-7.4278 z" />
    <path
       d="m 185.10547,487.46289 c -46.86431,5.85371 -83.42195,6.19568 -122.666017,0.48242 18.703099,60.72715 18.470212,88.30155 18.902344,117.05274 0.692123,0.65842 0.700074,1.24125 2.353515,1.78125 0.178228,1.06578 0.48296,2.58113 1.085938,3.5039 0.408472,0.62506 1.262329,1.22472 1.884766,1.63282 0.174213,1.13886 0.453733,2.61042 0.974609,3.52343 0.55232,0.96805 2.347656,2.19141 2.347656,2.19141 0.157632,0.0247 0.316835,0.0441 0.47461,0.0684 l 0,10.8457 c 22.502409,0.14054 45.378129,1.4282 65.783199,-4.96875 l -0.13671,-5.60547 c 0.0103,-9.2e-4 0.0209,-10e-4 0.0312,-0.002 0,0 2.20112,-1.52829 2.9375,-2.69141 0.4894,-0.77299 0.93039,-2.11431 1.24805,-3.26367 0.772,-0.5248 1.70617,-1.21269 2.19922,-1.89258 0.5804,-0.80039 1.05948,-2.13386 1.41016,-3.2832 1.08531,-0.41909 1.96427,-0.86855 2.43164,-1.35937 -1.35246,-39.08655 8.87337,-79.343 18.73828,-118.01563 z M 155.75,628.54492 c -20.13027,5.61255 -41.86833,5.09371 -62.816406,2.7168 l -4.113282,4.64844 c 24.562678,1.67781 51.438318,3.72801 68.572268,-5.76563 l -1.64063,-1.59961 -0.002,0 z m -0.24609,9.84961 c -20.13078,5.61309 -41.86965,5.10155 -62.818363,2.72461 l -4.113281,4.64258 c 24.562684,1.67781 51.440264,3.72606 68.574214,-5.76758 l -1.64257,-1.59961 z m 0.32617,9.29102 c -20.13026,5.61256 -41.86833,5.09565 -62.816408,2.71875 l -4.113281,4.64258 c 24.562679,1.67781 51.438309,3.73191 68.572269,-5.76172 l -1.64063,-1.59961 -0.002,0 z m 0.16797,9.12304 c -20.13077,5.61309 -41.86965,5.10156 -62.818362,2.72461 l -4.113282,4.64258 c 24.562684,1.67781 51.438314,3.73192 68.572264,-5.76172 l -1.64062,-1.60547 z m -12.08594,17.5293 c -12.3459,1.02399 -25.32803,1.63636 -40.28711,0.96289 1.62682,1.35342 3.05565,2.33083 7.23047,8.64649 10.53212,1.71549 18.48194,0.92019 25.98047,-0.31836 0.16526,-2.43786 4.52239,-6.07736 7.07812,-9.29102 l -0.002,0 z"
       id="path5678-8-7"
       inkscape:connector-curvature="0" />
  </g>
</svg>
